<?xml version="1.0" standalone="no"?>
<!DOCTYPE svg PUBLIC "-//W3C//DTD SVG 20010904//EN"
 "http://www.w3.org/TR/2001/REC-SVG-20010904/DTD/svg10.dtd">
<svg version="1.0" xmlns="http://www.w3.org/2000/svg"
 width="1280.000000pt" height="720.000000pt" viewBox="0 0 1280.000000 720.000000"
 preserveAspectRatio="xMidYMid meet">

<g transform="translate(0.000000,720.000000) scale(0.100000,-0.100000)"
fill="#000000" stroke="none">
<path d="M3590 3605 l0 -1035 340 0 340 0 0 1035 0 1035 -340 0 -340 0 0
-1035z m76 501 l-7 -475 46 -26 c25 -15 45 -29 45 -31 0 -2 -25 -4 -55 -4
l-55 0 0 498 c0 274 3 502 7 505 24 25 26 -17 19 -467z m161 272 c-4 -112 -7
-336 -7 -498 0 -162 -4 -301 -9 -309 -7 -11 -21 -6 -69 25 l-61 39 0 473 -1
472 77 0 76 0 -6 -202z m151 -305 l-3 -507 -70 3 c-38 1 -71 3 -71 4 -1 1 1
228 4 505 l5 502 69 0 68 0 -2 -507z m122 48 c0 -252 -3 -479 -6 -505 l-7 -46
-48 0 -49 0 0 378 c0 207 3 434 7 505 l6 127 49 0 48 0 0 -459z m120 -46 l0
-505 -55 0 -55 0 0 505 0 505 55 0 55 0 0 -505z m-410 -947 c0 -222 -3 -427
-7 -456 l-6 -53 -76 3 -76 3 -3 453 -2 452 85 0 85 0 0 -402z m170 -53 l0
-455 -80 0 -80 0 0 138 c0 76 3 281 7 455 l6 317 74 0 73 0 0 -455z m110 -1
l0 -455 -47 3 -48 3 -3 453 -2 452 50 0 50 0 0 -456z m128 4 l-3 -453 -51 -3
-51 -3 -6 182 c-4 100 -7 305 -7 456 l0 273 60 0 60 0 -2 -452z"/>
<path d="M5515 4633 c-245 -32 -466 -238 -515 -478 -17 -84 -15 -218 5 -295
43 -167 162 -313 316 -389 145 -71 149 -71 651 -71 277 0 466 -4 496 -11 140
-30 201 -187 122 -312 -18 -29 -43 -52 -72 -66 -43 -21 -54 -21 -504 -21 -301
0 -473 4 -499 11 -22 6 -125 45 -228 86 -103 41 -190 74 -192 71 -2 -2 -44
-89 -93 -195 l-89 -191 24 -11 c86 -39 446 -166 513 -180 87 -19 1089 -15
1167 4 142 37 289 141 375 267 22 33 54 97 71 142 29 76 31 89 32 221 0 122
-3 150 -24 213 -55 168 -187 312 -348 380 -115 49 -150 52 -614 52 l-435 0
-54 28 c-63 32 -89 64 -100 122 -15 84 16 150 90 188 l44 22 703 0 703 0 0
210 0 210 -757 -1 c-417 -1 -771 -4 -788 -6z m320 -53 l80 -1 -120 -44 c-66
-24 -202 -69 -303 -100 -149 -46 -201 -67 -275 -112 -51 -30 -100 -62 -109
-71 -24 -21 -23 -1 3 49 11 22 53 73 92 114 127 128 259 175 472 168 44 -1
116 -3 160 -3z m877 0 c142 0 257 -4 254 -8 -3 -5 -44 -33 -91 -62 l-86 -52
-97 27 c-159 45 -286 87 -297 98 -7 6 1 8 24 3 18 -3 150 -6 293 -6z m-264
-36 c64 -20 149 -45 187 -55 39 -11 75 -26 81 -34 6 -8 33 -18 60 -21 45 -6
55 -12 121 -82 40 -42 71 -77 69 -79 -4 -4 -52 12 -133 43 -38 15 -80 24 -110
23 l-48 -1 54 -8 c55 -8 139 -36 156 -52 6 -5 -45 -7 -125 -6 l-135 3 0 50 c0
49 -1 50 -45 73 -45 22 -46 22 -455 20 l-410 -3 -3 -22 c-3 -21 -9 -23 -80
-24 -42 -1 -106 -5 -142 -9 -53 -6 -38 -7 83 -8 l147 -2 0 25 c0 23 3 25 48
25 26 0 205 2 397 5 336 6 353 5 398 -14 l47 -20 0 -51 0 -50 -485 0 c-416 0
-491 -2 -523 -16 -35 -14 -38 -14 -55 7 -15 19 -20 20 -50 9 -17 -7 -93 -53
-167 -101 -133 -87 -137 -91 -195 -179 -32 -50 -64 -95 -70 -100 -24 -20 -34
158 -14 251 14 63 38 88 162 165 84 52 182 89 432 163 39 12 124 41 190 66
l120 44 188 1 189 0 116 -36z m553 -120 c-1 -75 -3 -140 -7 -143 -3 -3 -44 35
-92 86 l-88 91 90 56 c49 30 91 54 93 52 3 -2 4 -66 4 -142z m-1467 -176 c11
-11 8 -20 -20 -51 -19 -21 -37 -51 -41 -67 -3 -17 -11 -30 -17 -30 -6 0 -22
-19 -36 -43 -111 -191 -190 -334 -190 -343 0 -12 146 -155 220 -216 l45 -37
-50 15 c-163 48 -299 168 -363 321 l-22 52 69 107 c41 60 86 117 108 133 149
107 252 171 275 171 5 0 15 -6 22 -12z m-74 -215 c0 -79 88 -190 169 -213 20
-5 101 -10 180 -10 87 0 141 -4 135 -9 -5 -5 -72 -24 -149 -42 -129 -30 -156
-33 -342 -37 -112 -2 -203 0 -203 4 0 13 194 344 202 344 5 0 8 -17 8 -37z
m1135 -238 c88 -18 226 -85 199 -96 -31 -12 -126 -10 -184 4 -34 8 -134 14
-262 16 l-207 3 -9 -34 -8 -33 -295 -5 c-162 -3 -289 -7 -284 -8 17 -5 1039
-1 1044 3 2 3 -98 5 -223 5 l-227 0 3 23 c3 22 3 22 226 25 130 1 222 -1 222
-7 0 -5 55 -10 122 -10 66 -1 125 -4 130 -7 4 -3 8 -146 8 -319 l0 -313 -102
-75 c-57 -40 -138 -97 -180 -126 l-78 -52 -137 -14 c-370 -39 -329 -39 -569 6
-192 35 -220 42 -243 66 -14 14 -62 46 -106 71 -162 91 -235 135 -232 138 2 2
66 -21 143 -52 105 -42 161 -58 229 -67 50 -6 93 -15 96 -20 3 -5 39 -17 80
-28 41 -10 114 -31 162 -45 l88 -26 182 37 c282 58 338 78 415 148 57 53 81
106 82 178 0 81 -25 145 -77 196 -75 72 -81 73 -609 73 l-462 0 -31 26 c-17
14 -31 34 -31 45 0 18 16 19 580 19 380 0 580 3 580 10 0 7 -202 10 -585 10
-578 0 -585 0 -585 -20 0 -11 -5 -20 -11 -20 -6 0 -52 39 -101 88 l-90 87 59
6 c32 4 119 8 193 9 124 1 152 5 335 49 l200 48 240 2 c176 0 259 -3 310 -14z
m331 -207 c110 -146 148 -320 109 -500 -16 -77 -88 -223 -119 -243 -21 -14
-119 -40 -592 -161 l-251 -64 -144 30 c-79 17 -184 37 -234 46 -49 8 -137 27
-194 41 -97 23 -106 24 -117 8 -13 -18 -31 -10 -256 117 -98 55 -95 45 -42
150 38 76 43 82 63 64 26 -23 295 -182 346 -205 33 -15 45 -25 43 -38 -3 -15
16 -22 127 -44 332 -67 306 -65 577 -39 l243 22 85 56 c47 30 131 88 188 129
l102 75 0 309 c0 180 4 309 9 309 5 0 31 -28 57 -62z m-498 -663 c-5 -6 -58
-17 -315 -70 l-112 -22 -151 42 c-83 24 -154 46 -157 49 -4 3 162 6 367 6 205
0 371 -2 368 -5z m-1218 -124 c157 -85 166 -88 180 -70 15 17 17 17 87 -2 40
-11 173 -40 295 -64 l223 -43 -241 -1 c-206 -1 -252 2 -315 18 -77 20 -428
147 -442 161 -9 8 28 90 41 90 4 0 81 -40 172 -89z m1635 -37 c-27 -24 -79
-59 -115 -78 -107 -56 -170 -66 -391 -65 l-194 0 110 30 c434 115 631 165 635
161 3 -2 -17 -24 -45 -48z"/>
<path d="M6758 3424 c-5 -4 -8 -58 -8 -121 l0 -113 -25 0 c-14 0 -25 -4 -25
-10 0 -15 60 -12 66 3 8 21 0 250 -8 241z"/>
<path d="M8437 4633 c-3 -5 -51 -98 -107 -208 -97 -188 -379 -739 -585 -1140
-309 -601 -355 -693 -355 -703 0 -9 67 -12 253 -12 l252 0 105 210 105 210
453 -2 454 -3 55 -155 c30 -85 62 -177 72 -205 l17 -50 287 -3 c192 -1 287 1
287 8 0 16 -99 258 -345 840 -89 212 -240 573 -336 803 l-173 417 -218 0
c-119 0 -219 -3 -221 -7z m383 -59 c0 -16 -174 -344 -182 -344 -6 0 -8 7 -4
15 3 10 -3 17 -19 21 -39 10 -46 -3 -25 -49 11 -23 20 -50 20 -60 0 -9 -65
-147 -144 -305 l-144 -288 -103 4 c-57 2 -105 6 -107 7 -2 2 41 84 95 182 140
251 212 382 277 505 52 98 60 107 89 111 31 4 31 4 -5 5 -41 2 -19 34 -186
-273 -35 -66 -116 -213 -179 -327 l-115 -208 -70 0 -70 0 20 33 c11 17 70 131
132 252 62 121 152 297 200 390 48 94 106 207 129 253 l41 82 175 0 c96 0 175
-3 175 -6z m83 -145 c20 -49 37 -94 37 -98 0 -4 -11 -13 -25 -19 -14 -6 -25
-18 -25 -25 0 -13 197 -544 240 -649 32 -74 30 -78 -44 -78 -39 0 -67 5 -73
13 -9 11 -219 469 -262 570 -12 27 -27 47 -36 47 -8 0 -15 3 -15 6 0 13 153
324 160 324 3 0 23 -41 43 -91z m110 -265 c127 -298 246 -588 243 -591 -2 -2
-19 -6 -39 -10 -44 -7 -39 -16 -142 257 -172 453 -175 462 -157 477 9 7 21 11
26 10 5 -2 36 -66 69 -143z m-295 3 c6 -7 53 -104 105 -217 140 -304 167 -366
167 -379 0 -7 -22 -11 -59 -11 l-59 0 -16 43 c-37 100 -174 494 -179 516 -6
25 7 61 22 61 5 0 13 -6 19 -13z m-50 -197 c16 -47 64 -184 106 -305 42 -121
81 -230 86 -243 6 -13 10 -27 10 -32 0 -6 -111 -10 -285 -10 -157 0 -285 2
-285 4 0 10 331 678 334 675 3 -2 18 -42 34 -89z m346 -442 c1 -2 24 -55 51
-118 26 -63 81 -187 120 -275 40 -88 77 -172 83 -187 10 -23 18 -28 47 -28
l35 0 60 -126 c42 -90 58 -133 54 -150 -6 -24 -8 -24 -129 -24 -68 0 -126 4
-129 9 -3 4 6 19 19 31 14 13 25 31 24 39 0 9 -26 75 -58 146 -54 123 -59 130
-88 133 l-30 3 -95 272 -95 272 36 6 c35 5 91 4 95 -3z m139 3 c19 -7 32 -29
55 -88 l29 -78 44 -1 43 -1 67 -184 c36 -101 87 -237 113 -302 26 -65 49 -131
53 -148 3 -16 9 -29 14 -29 16 0 19 -10 -90 275 -56 144 -132 355 -137 380 -3
11 5 0 17 -25 34 -73 289 -690 289 -701 0 -5 -39 -9 -86 -9 -84 0 -86 0 -81
23 4 15 -16 66 -61 157 -67 135 -67 135 -104 138 -28 2 -39 9 -44 25 -4 12
-60 142 -125 290 -66 147 -119 269 -119 271 0 14 92 19 123 7z m95 3 c25 -5
34 -15 57 -70 15 -34 24 -67 21 -72 -4 -7 -76 -23 -76 -17 0 0 -14 33 -30 74
-17 40 -30 77 -30 82 0 11 16 11 58 3z m-1232 -86 c-25 -46 -85 -155 -134
-243 -87 -155 -89 -161 -71 -177 11 -9 24 -18 31 -20 6 -2 -12 -44 -46 -102
-31 -54 -56 -101 -56 -106 0 -4 -11 -15 -24 -23 -13 -9 -58 -48 -101 -87 -67
-62 -80 -71 -103 -65 -15 4 -28 8 -30 9 -1 2 13 27 33 56 35 53 44 77 23 64
-7 -4 -8 -3 -4 5 4 6 11 9 16 6 10 -6 92 152 135 260 15 39 77 168 136 288
l109 217 66 0 65 0 -45 -82z m242 -23 l-53 -105 -82 0 -83 0 -23 -37 c-13 -21
-52 -87 -86 -148 -35 -60 -66 -113 -69 -117 -4 -4 -17 1 -30 10 l-23 18 87
154 c150 269 174 312 174 321 0 5 54 9 120 9 l120 0 -52 -105z m668 -187 l31
-88 -126 0 -126 0 -15 48 -16 47 -217 3 c-119 1 -217 4 -217 7 0 2 8 20 17 40
l17 35 310 -2 311 -3 31 -87z m-736 63 c0 -5 -74 -161 -165 -345 l-166 -336
-147 0 -146 0 49 51 c28 28 69 64 92 80 23 16 45 39 49 52 4 12 49 94 102 182
52 88 113 192 135 230 22 39 45 76 50 83 11 14 147 17 147 3z m489 -108 c6
-21 11 -44 11 -50 0 -10 34 -13 135 -13 149 0 137 5 159 -67 l7 -23 -133 0
-133 0 -68 55 -67 55 -200 0 c-110 0 -200 2 -200 5 0 3 7 21 14 40 l15 35 225
0 225 0 10 -37z m-66 -76 c12 -8 38 -29 57 -46 l35 -30 -287 -1 -287 0 16 38
c28 67 17 64 241 59 157 -4 208 -9 225 -20z m514 -169 c4 -7 31 -65 59 -128
l51 -114 -21 -29 -21 -29 -22 51 c-26 58 -83 230 -83 249 0 6 6 12 14 12 8 0
18 -6 23 -12z m-1561 -145 c-8 -15 -15 -25 -16 -21 0 12 23 58 27 54 3 -2 -2
-17 -11 -33z m-45 -86 c-10 -9 -11 -8 -5 6 3 10 9 15 12 12 3 -3 0 -11 -7 -18z"/>
</g>
</svg>
